#!OML:ASF X:\für Bonn\!DataBase\2005_08_10_Bjorn_Final\c3d\bjorn.ASF
:FULLY-SPECIFIED
:DEGREES
354
root 12.509 19.1393 -0.120194 176.878 -92.1048 -174.595
lowerback -0.554394 0.0529476 -0.61562
upperback 6.13166 0.0647224 -1.93795
thorax 6.68437 0.000273781 -1.67884
lowerneck 7.63555 -2.28137 8.59916
upperneck 12.0397 -2.74621 -3.4287
head 2.4121 -1.24957 -2.61329
rclavicle -3.97569e-015 -3.18055e-015
rhumerus -28.3889 8.51025 -79.9845
rradius 44.7051
rwrist -8.16447
rhand -6.13766 8.677
rfingers 7.12502
rthumb 19.7 -20.3448
lclavicle -3.97569e-015 -3.18055e-015
lhumerus -32.5263 -17.1183 85.6641
lradius 34.6795
lwrist -12.3778
lhand -25.7114 -15.7212
lfingers 7.12502
lthumb 0.824526 14.2569
rfemur -9.8719 -9.28565 17.2641
rtibia 31.2332
rfoot -16.1072 19.7821
rtoes 6.53475
lfemur -1.91114 3.57752 -10.7526
ltibia 23.0908
lfoot -14.3791 14.7047
ltoes -22.5651
355
root 12.4584 19.1411 -0.134154 176.639 -92.0399 -174.02
lowerback -1.30649 -0.0241835 -0.668052
upperback 5.71195 -0.00703101 -1.95595
thorax 6.66941 -0.0290948 -1.67156
lowerneck 7.7424 -2.21149 8.62239
upperneck 12.4983 -2.6742 -3.40864
head 2.55581 -1.2137 -2.61954
rclavicle 7.95139e-015 7.95139e-016
rhumerus -28.9052 8.02187 -80.138
rradius 45.1908
rwrist -8.19981
rhand -6.2694 8.74478
rfingers 7.12502
rthumb 19.5734 -20.2899
lclavicle 7.95139e-015 7.95139e-016
lhumerus -32.8428 -16.7104 85.7146
lradius 34.7971
lwrist -12.7981
lhand -25.6469 -15.7144
lfingers 7.12502
lthumb 0.886742 14.2635
rfemur -10.0826 -9.60965 17.2875
rtibia 31.2066
rfoot -16.0511 20.2056
rtoes 6.9141
lfemur -2.02978 3.73465 -10.7349
ltibia 22.9532
lfoot -14.3677 14.7291
ltoes -22.6264
356
root 12.4088 19.1422 -0.149062 175.879 -91.9943 -172.932
lowerback -2.02707 -0.103054 -0.740346
upperback 5.28021 -0.082159 -1.97962
thorax 6.62434 -0.0618404 -1.66027
lowerneck 7.84936 -2.13364 8.67881
upperneck 13.0034 -2.59234 -3.40551
head 2.71719 -1.17202 -2.63905
rclavicle 3.57812e-015 5.56597e-015
rhumerus -29.4404 7.58723 -80.2993
rradius 45.6472
rwrist -8.30779
rhand -6.40401 8.79256
rfingers 7.12502
rthumb 19.4439 -20.2553
lclavicle 3.57812e-015 5.56597e-015
lhumerus -33.2107 -16.3035 85.7578
lradius 34.9615
lwrist -13.1936
lhand -25.6247 -15.6048
lfingers 7.12502
lthumb 0.908254 14.373
rfemur -10.2885 -9.87857 17.3027
rtibia 31.1956
rfoot -16.0132 20.5584
rtoes 7.16098
lfemur -2.14358 3.86432 -10.7313
ltibia 22.8152
lfoot -14.3805 14.7282
ltoes -22.5707
357
root 12.3611 19.1411 -0.162911 173.015 -91.9667 -169.792
lowerback -2.66186 -0.190782 -0.885875
upperback 4.86887 -0.168828 -2.00859
thorax 6.55216 -0.105196 -1.6152
lowerneck 7.91752 -2.05476 8.71364
upperneck 13.5084 -2.51232 -3.41866
head 2.88657 -1.13252 -2.66113
rclavicle 4.96962e-015 -2.38542e-015
rhumerus -29.9885 7.17426 -80.4481
rradius 46.1562
rwrist -8.39379
rhand -6.57456 8.80908
rfingers 7.12502
rthumb 19.28 -20.2552
lclavicle 4.96962e-015 -2.38542e-015
lhumerus -33.5967 -15.785 85.7869
lradius 35.1897
lwrist -13.6354
lhand -25.6061 -15.4953
lfingers 7.12502
lthumb 0.926223 14.4824
rfemur -10.4485 -10.1873 17.2227
rtibia 31.2017
rfoot -15.9763 20.9591
rtoes 7.49048
lfemur -2.2075 3.9226 -10.8185
ltibia 22.674
lfoot -14.4023 14.8066
ltoes -22.5162
358
root 12.3148 19.1411 -0.176613 170.62 -91.9401 -167.12
lowerback -3.28422 -0.274009 -1.00891
upperback 4.47192 -0.252299 -2.02682
thorax 6.48895 -0.146595 -1.57254
lowerneck 7.9697 -1.986 8.72411
upperneck 14.0033 -2.44731 -3.44116
head 3.05563 -1.10194 -2.68213
rclavicle -4.37326e-015 -6.36111e-015
rhumerus -30.5241 6.76538 -80.5757
rradius 46.6709
rwrist -8.54166
rhand -6.71263 8.8354
rfingers 7.12502
rthumb 19.1472 -20.2421
lclavicle -4.37326e-015 -6.36111e-015
lhumerus -33.9635 -15.2583 85.8281
lradius 35.4236
lwrist -14.0547
lhand -25.6414 -15.3174
lfingers 7.12502
lthumb 0.892093 14.6605
rfemur -10.6228 -10.5238 17.1627
rtibia 31.2154
rfoot -15.9239 21.3789
rtoes 7.68395
lfemur -2.27757 4.04973 -10.8786
ltibia 22.5423
lfoot -14.3963 14.8261
ltoes -22.5982
359
root 12.2705 19.1401 -0.190505 167.508 -91.9107 -163.742
lowerback -3.87478 -0.344466 -1.14278
upperback 4.09427 -0.319012 -2.0588
thorax 6.42882 -0.180601 -1.53767
lowerneck 8.00998 -1.91303 8.70179
upperneck 14.4273 -2.38375 -3.38069
head 3.20372 -1.07185 -2.66708
rclavicle 2.5842e-015 -5.56597e-015
rhumerus -31.025 6.26614 -80.7115
rradius 47.1777
rwrist -8.56605
rhand -6.90292 8.84909
rfingers 7.12502
rthumb 18.9642 -20.2464
lclavicle 2.5842e-015 -5.56597e-015
lhumerus -34.2836 -14.7226 85.8309
lradius 35.6687
lwrist -14.4651
lhand -25.611 -15.1069
lfingers 7.12502
lthumb 0.9215 14.8708
rfemur -10.7969 -10.8499 17.0824
rtibia 31.2424
rfoot -15.8457 21.7958
rtoes 8.122
lfemur -2.34384 4.15145 -10.9609
ltibia 22.4179
lfoot -14.4427 14.8474
ltoes -22.4721
360
root 12.229 19.1394 -0.203679 165.899 -91.8837 -161.899
lowerback -4.40836 -0.42957 -1.24085
upperback 3.76512 -0.41168 -2.04633
thorax 6.38708 -0.227384 -1.47994
lowerneck 7.95938 -1.81621 8.61004
upperneck 14.7886 -2.29416 -3.31548
head 3.34814 -1.0315 -2.63793
rclavicle 1.78906e-015 3.10104e-014
rhumerus -31.4236 5.80228 -80.8085
rradius 47.6843
rwrist -8.62107
rhand -7.03819 8.83636
rfingers 7.12502
rthumb 18.8341 -20.2718
lclavicle 1.78906e-015 3.10104e-014
lhumerus -34.4732 -14.1129 85.8422
lradius 35.8147
lwrist -14.7871
lhand -25.548 -14.913
lfingers 7.12502
lthumb 0.98234 15.0645
rfemur -10.9439 -11.1159 17.0654
rtibia 31.2682
rfoot -15.8206 22.1455
rtoes 8.37251
lfemur -2.40661 4.27206 -10.9822
ltibia 22.3127
lfoot -14.4117 14.8912
ltoes -22.6688
361
root 12.1895 19.1372 -0.216487 164.296 -91.858 -160.08
lowerback -4.8997 -0.500865 -1.3208
upperback 3.44346 -0.488602 -2.04106
thorax 6.32931 -0.26582 -1.43883
lowerneck 7.96844 -1.73624 8.54193
upperneck 15.0564 -2.21696 -3.24828
head 3.44833 -0.996603 -2.60893
rclavicle 6.55989e-015 1.03368e-014
rhumerus -31.8158 5.2885 -80.9241
rradius 48.1675
rwrist -8.66648
rhand -7.19301 8.84512
rfingers 7.12502
rthumb 18.6852 -20.2775
lclavicle 6.55989e-015 1.03368e-014
lhumerus -34.6368 -13.5917 85.8596
lradius 35.9411
lwrist -15.0232
lhand -25.4648 -14.7156
lfingers 7.12502
lthumb 1.06261 15.2615
rfemur -11.0767 -11.4501 17.0388
rtibia 31.294
rfoot -15.7366 22.5657
rtoes 8.69897
lfemur -2.4581 4.40053 -10.9958
ltibia 22.2267
lfoot -14.427 14.8922
ltoes -22.5819
362
root 12.1519 19.1355 -0.228929 163.02 -91.8207 -158.6
lowerback -5.34766 -0.577564 -1.3892
upperback 3.13052 -0.576008 -2.02341
thorax 6.25584 -0.309517 -1.39266
lowerneck 7.98691 -1.66019 8.48886
upperneck 15.2714 -2.13696 -3.21578
head 3.52811 -0.960661 -2.59323
rclavicle -2.5842e-015 -1.51076e-014
rhumerus -32.1966 4.82058 -81.0581
rradius 48.6396
rwrist -8.76005
rhand -7.41441 8.83788
rfingers 7.12502
rthumb 18.4722 -20.3051
lclavicle -2.5842e-015 -1.51076e-014
lhumerus -34.7467 -13.0182 85.8621
lradius 35.9993
lwrist -15.1576
lhand -25.3265 -14.5488
lfingers 7.12502
lthumb 1.19622 15.4276
rfemur -11.2018 -11.7258 17.0351
rtibia 31.3145
rfoot -15.6951 22.9142
rtoes 8.90013
lfemur -2.51835 4.50127 -11.003
ltibia 22.1635
lfoot -14.4137 14.9473
ltoes -22.701
